<svg width="42" height="42" viewBox="0 0 42 42" fill="none" xmlns="http://www.w3.org/2000/svg">
<path d="M19.25 15.75H22.75V12.25H19.25V15.75ZM21 35C13.2825 35 7 28.7175 7 21C7 13.2825 13.2825 7 21 7C28.7175 7 35 13.2825 35 21C35 28.7175 28.7175 35 21 35ZM21 3.5C18.7019 3.5 16.4262 3.95265 14.303 4.83211C12.1798 5.71157 10.2507 7.00061 8.62563 8.62563C5.34374 11.9075 3.5 16.3587 3.5 21C3.5 25.6413 5.34374 30.0925 8.62563 33.3744C10.2507 34.9994 12.1798 36.2884 14.303 37.1679C16.4262 38.0474 18.7019 38.5 21 38.5C25.6413 38.5 30.0925 36.6563 33.3744 33.3744C36.6563 30.0925 38.5 25.6413 38.5 21C38.5 18.7019 38.0474 16.4262 37.1679 14.303C36.2884 12.1798 34.9994 10.2507 33.3744 8.62563C31.7493 7.00061 29.8202 5.71157 27.697 4.83211C25.5738 3.95265 23.2981 3.5 21 3.5ZM19.25 29.75H22.75V19.25H19.25V29.75Z" fill="#729DB7"/>
</svg>